<svg width="200" height="61" viewBox="0 0 200 61" fill="none" xmlns="http://www.w3.org/2000/svg">
<path fill-rule="evenodd" clip-rule="evenodd" d="M70.1721 29.6209C70.9101 29.3491 71.5434 28.8691 71.9869 28.2452C72.4305 27.6212 72.6633 26.8831 72.6541 26.1297C72.6541 22.9877 70.3131 21.4301 67.0978 21.4301H58.6648V38.5098H67.8311C70.6516 38.5098 73.4156 36.63 73.4156 33.7565C73.4156 30.3459 70.1721 29.6477 70.1721 29.6209ZM63.0646 24.975H66.3363C66.5621 24.962 66.7882 24.9948 66.9997 25.0712C67.2112 25.1476 67.4032 25.2658 67.5631 25.4181C67.7231 25.5704 67.8473 25.7533 67.9275 25.9546C68.0077 26.156 68.0422 26.3713 68.0286 26.5863C68.0242 26.8011 67.9741 27.0129 67.8815 27.2088C67.7888 27.4047 67.6555 27.5808 67.4894 27.7263C67.3234 27.8719 67.1282 27.9839 66.9154 28.0557C66.7027 28.1274 66.4769 28.1574 66.2517 28.1438H63.0646V24.975ZM66.3645 34.9381H63.0646V31.5813H66.2799C67.8875 31.5813 68.649 32.2526 68.649 33.2463C68.649 34.4816 67.6901 34.9381 66.3645 34.9381Z" fill="black"/>
<path fill-rule="evenodd" clip-rule="evenodd" d="M83.1178 21.0005C77.9282 21.0005 74.8822 24.9481 74.8822 29.9431C74.8822 34.965 77.9282 38.8858 83.1178 38.8858C88.3356 38.8858 91.3534 34.965 91.3534 29.9431C91.3534 24.9481 88.3356 21.0005 83.1178 21.0005ZM83.1178 34.8038C80.5794 34.8038 79.3102 32.6286 79.3102 29.9431C79.3102 27.2576 80.5794 25.1093 83.1178 25.1093C85.6562 25.1093 86.9536 27.2845 86.9536 29.9431C86.9536 32.6555 85.6562 34.8038 83.1178 34.8038Z" fill="black"/>
<path fill-rule="evenodd" clip-rule="evenodd" d="M100.915 28.1438L100.294 28.0096C98.7712 27.7142 97.5584 27.3382 97.5584 26.2909C97.5584 25.163 98.7147 24.7064 99.7301 24.7064C100.423 24.7168 101.106 24.8628 101.737 25.1354C102.367 25.408 102.932 25.8013 103.397 26.2909L106.189 23.6591C104.92 22.2895 102.861 20.9736 99.6455 20.9736C95.8661 20.9736 92.9893 22.9877 92.9893 26.3446C92.9893 29.406 95.302 30.9099 98.1225 31.4738L98.7429 31.6081C101.084 32.0646 101.958 32.4138 101.958 33.4879C101.958 34.5084 100.999 35.1798 99.5327 35.1798C97.784 35.1798 96.2046 34.4547 94.9918 32.9777L92.1432 35.6632C93.7226 37.4625 95.7251 38.8589 99.5891 38.8589C102.945 38.8589 106.527 37.0328 106.527 33.3C106.584 29.406 103.481 28.6541 100.915 28.1438Z" fill="black"/>
<path fill-rule="evenodd" clip-rule="evenodd" d="M116.568 34.8038C114.594 34.8038 112.535 33.2463 112.535 29.8357C112.535 26.8011 114.453 25.1093 116.455 25.1093C118.035 25.1093 118.965 25.8075 119.699 27.0159L123.309 24.7333C121.504 22.1284 119.36 21.0273 116.399 21.0273C110.984 21.0273 108.05 25.0287 108.05 29.8626C108.05 34.9381 111.294 38.9126 116.342 38.9126C119.896 38.9126 121.588 37.731 123.422 35.2067L119.783 32.8703C119.05 33.9982 118.26 34.8038 116.568 34.8038Z" fill="black"/>
<path fill-rule="evenodd" clip-rule="evenodd" d="M135.352 21.4301V27.7142H129.909V21.4301H125.198V38.5098H129.909V31.7692H135.352V38.5098H140.062V21.4301H135.352Z" fill="black"/>
<path d="M31.5323 17.0797C28.8436 17.0797 26.2152 17.8388 23.9796 19.2611C21.7441 20.6834 20.0016 22.705 18.9727 25.0702C17.9438 27.4354 17.6745 30.038 18.1991 32.5489C18.7236 35.0598 20.0184 37.3662 21.9196 39.1765C23.8208 40.9867 26.2431 42.2195 28.8802 42.719C31.5172 43.2184 34.2506 42.9621 36.7347 41.9824C39.2187 41.0027 41.3419 39.3436 42.8357 37.215C44.3294 35.0864 45.1267 32.5838 45.1267 30.0237C45.1248 26.5913 43.6919 23.3 41.1429 20.8729C38.5938 18.4458 35.1372 17.0815 31.5323 17.0797ZM31.5323 41.7592C29.0946 41.7592 26.7116 41.071 24.6848 39.7814C22.6579 38.4919 21.0781 36.6591 20.1453 34.5147C19.2124 32.3703 18.9683 30.0107 19.4439 27.7342C19.9195 25.4577 21.0933 23.3666 22.817 21.7254C24.5408 20.0841 26.7369 18.9664 29.1278 18.5136C31.5186 18.0608 33.9968 18.2932 36.249 19.1814C38.5011 20.0697 40.4261 21.5739 41.7804 23.5038C43.1347 25.4337 43.8575 27.7026 43.8575 30.0237C43.8542 33.1352 42.5546 36.1183 40.2439 38.3184C37.9332 40.5186 34.8001 41.756 31.5323 41.7592Z" fill="black"/>
<path d="M37.1449 21.9404H36.2142V26.3714H26.8786V21.9404H25.9197C24.5153 22.8228 23.3628 24.0231 22.5654 25.4338C21.7679 26.8446 21.3505 28.4216 21.3505 30.0237C21.3505 31.6258 21.7679 33.2028 22.5654 34.6135C23.3628 36.0243 24.5153 37.2246 25.9197 38.107H26.8786V33.6759H36.2142V38.107H37.1449C38.5493 37.2246 39.7018 36.0243 40.4993 34.6135C41.2967 33.2028 41.7141 31.6258 41.7141 30.0237C41.7141 28.4216 41.2967 26.8446 40.4993 25.4338C39.7018 24.0231 38.5493 22.8228 37.1449 21.9404ZM25.5812 36.3614C24.6411 35.566 23.8886 34.5899 23.3733 33.4975C22.858 32.4051 22.5916 31.2212 22.5916 30.0237C22.5916 28.8262 22.858 27.6422 23.3733 26.5499C23.8886 25.4575 24.6411 24.4814 25.5812 23.6859V36.3614ZM36.2142 32.4406H26.8786V27.5799H36.2142V32.4406ZM37.4834 36.3346V23.6859C38.4154 24.4833 39.1607 25.4584 39.6709 26.548C40.1811 27.6376 40.4448 28.8173 40.4448 30.0103C40.4448 31.2032 40.1811 32.3829 39.6709 33.4725C39.1607 34.5621 38.4154 35.5372 37.4834 36.3346Z" fill="black"/>
<line x1="150.5" y1="10.4844" x2="150.5" y2="48.6097" stroke="black"/>
<path d="M160.358 37.1096H158.511L163.852 22.5642H165.67L171.011 37.1096H169.165L164.818 24.8653H164.705L160.358 37.1096ZM161.04 31.4278H168.483V32.9903H161.04V31.4278ZM173.277 37.1096V22.5642H178.362C179.375 22.5642 180.211 22.7394 180.869 23.0897C181.527 23.4354 182.018 23.9018 182.339 24.4889C182.661 25.0713 182.822 25.7176 182.822 26.4278C182.822 27.0528 182.711 27.5689 182.489 27.9761C182.271 28.3833 181.982 28.7053 181.622 28.942C181.267 29.1787 180.881 29.3539 180.464 29.4676V29.6096C180.91 29.638 181.357 29.7943 181.807 30.0784C182.257 30.3625 182.633 30.7697 182.936 31.3C183.239 31.8303 183.391 32.4789 183.391 33.246C183.391 33.9751 183.225 34.6309 182.893 35.2133C182.562 35.7957 182.039 36.2573 181.324 36.5983C180.609 36.9392 179.679 37.1096 178.533 37.1096H173.277ZM175.038 35.5471H178.533C179.683 35.5471 180.5 35.3246 180.983 34.8795C181.471 34.4297 181.714 33.8852 181.714 33.246C181.714 32.7536 181.589 32.299 181.338 31.8823C181.087 31.4609 180.73 31.1248 180.266 30.8738C179.802 30.6181 179.252 30.4903 178.618 30.4903H175.038V35.5471ZM175.038 28.9562H178.305C178.836 28.9562 179.314 28.852 179.74 28.6437C180.171 28.4354 180.512 28.1418 180.763 27.763C181.018 27.3842 181.146 26.9392 181.146 26.4278C181.146 25.7886 180.924 25.2465 180.479 24.8014C180.034 24.3516 179.328 24.1267 178.362 24.1267H175.038V28.9562ZM197.989 27.1096H196.228C196.124 26.603 195.942 26.1579 195.681 25.7744C195.425 25.3909 195.113 25.0689 194.744 24.8085C194.379 24.5433 193.974 24.3445 193.529 24.2119C193.084 24.0793 192.62 24.013 192.137 24.013C191.256 24.013 190.459 24.2356 189.744 24.6806C189.033 25.1257 188.468 25.7815 188.046 26.648C187.629 27.5144 187.421 28.5774 187.421 29.8369C187.421 31.0964 187.629 32.1593 188.046 33.0258C188.468 33.8923 189.033 34.5481 189.744 34.9931C190.459 35.4382 191.256 35.6608 192.137 35.6608C192.62 35.6608 193.084 35.5945 193.529 35.4619C193.974 35.3293 194.379 35.1328 194.744 34.8724C195.113 34.6073 195.425 34.2829 195.681 33.8994C195.942 33.5111 196.124 33.0661 196.228 32.5642H197.989C197.857 33.3075 197.615 33.9728 197.265 34.5599C196.915 35.147 196.479 35.6466 195.958 36.0585C195.437 36.4657 194.853 36.7758 194.204 36.9889C193.56 37.2019 192.871 37.3085 192.137 37.3085C190.897 37.3085 189.793 37.0055 188.827 36.3994C187.862 35.7933 187.102 34.9316 186.548 33.8142C185.994 32.6967 185.717 31.371 185.717 29.8369C185.717 28.3028 185.994 26.977 186.548 25.8596C187.102 24.7422 187.862 23.8805 188.827 23.2744C189.793 22.6683 190.897 22.3653 192.137 22.3653C192.871 22.3653 193.56 22.4718 194.204 22.6849C194.853 22.898 195.437 23.2105 195.958 23.6224C196.479 24.0296 196.915 24.5268 197.265 25.1139C197.615 25.6963 197.857 26.3615 197.989 27.1096Z" fill="black"/>
</svg>
